<?xml version="1.0" encoding="UTF-8" standalone="no"?><svg xmlns="http://www.w3.org/2000/svg" xmlns:xlink="http://www.w3.org/1999/xlink" fill="#000000" height="445" preserveAspectRatio="xMidYMid meet" version="1" viewBox="0.0 0.0 500.6 445.0" width="500.6" zoomAndPan="magnify"><g id="Illustration"><g id="change1_1"><path d="M18.1628895,31.0537739h129.2998962c10.0310822,0,18.1628876,8.1318035,18.1628876,18.1628895v346.5787964 c0,10.0310669-8.1318054,18.1628723-18.1628876,18.1628723H18.1628895C8.1318026,413.9583435,0,405.8265381,0,395.7954712 V49.2166634C0,39.1855774,8.1318026,31.0537739,18.1628895,31.0537739z" fill="#755da3"/></g><g id="change2_1"><path d="M327.3017883,445.0114746H34.779953c-3.3434639,0-6.0542984-2.7108459-6.0542984-6.0542908V6.0542965 C28.7256546,2.7108347,31.4364891,0,34.779953,0h292.5218506c3.3434753,0,6.0542908,2.7108347,6.0542908,6.0542965v141.1230469 c0,3.3434601-2.7108154,6.054306-6.0542908,6.054306c-3.3434448,0-6.0542908-2.7108459-6.0542908-6.054306V12.108593H40.8342476 v420.794281h280.4132385V297.834137c0-3.3434753,2.7108459-6.0542908,6.0542908-6.0542908 c3.3434753,0,6.0542908,2.7108154,6.0542908,6.0542908v141.1230469 C333.3560791,442.3006287,330.6452637,445.0114746,327.3017883,445.0114746z" fill="#9280b5"/></g><g id="change2_2"><path d="M493.9457092,228.5615082H237.9358826c-3.3434601,0-6.0542908-2.7108307-6.0542908-6.0542908 s2.7108307-6.054306,6.0542908-6.054306h256.0098267c3.3434448,0,6.0542908,2.7108459,6.0542908,6.054306 S497.2891541,228.5615082,493.9457092,228.5615082z" fill="#9280b5"/></g><g id="change2_3"><path d="M378.3967285,344.1104736c-1.5490417,0-3.0980835-0.5912476-4.2805786-1.7737122 c-2.3649597-2.3649597-2.3649597-6.1961975,0-8.5611572L485.384552,222.5072174L374.1161499,111.2388229 c-2.3649597-2.3649597-2.3649597-6.1961899,0-8.5611496s6.1961975-2.3649597,8.5611572,0l115.5489807,115.5489655 c2.3649597,2.3649597,2.3649597,6.1961975,0,8.5611572L382.6773071,342.3367615 C381.4948425,343.5192261,379.9458008,344.1104736,378.3967285,344.1104736z" fill="#9280b5"/></g></g></svg>