<?xml version="1.0" encoding="UTF-8" standalone="no"?><svg xmlns="http://www.w3.org/2000/svg" xmlns:xlink="http://www.w3.org/1999/xlink" fill="#000000" height="408.7" preserveAspectRatio="xMidYMid meet" version="1" viewBox="-0.6 0.0 501.1 408.7" width="501.1" zoomAndPan="magnify"><g id="Illustration"><g id="change1_1"><circle cx="354.497" cy="103.209" fill="#755da3" r="80.546"/></g><g id="change2_1"><path d="M468.2280273,408.7423096H31.7725697c-17.5191498,0-31.7719765-14.2528381-31.7719765-31.7744446V31.7719765 C0.0005926,14.2528257,14.2534189,0,31.7725697,0h436.4554443C485.7471619,0,500,14.2528257,500,31.7719765V376.967865 C500,394.4894714,485.7471619,408.7423096,468.2280273,408.7423096z M31.7725697,10.1125193 c-11.9419575,0-21.6594582,9.7174997-21.6594582,21.6594582V376.967865c0,11.9444275,9.7174997,21.6619263,21.6594582,21.6619263 h436.4554443c11.9419556,0,21.6594543-9.7174988,21.6594543-21.6619263V31.7719765 c0-11.9419575-9.7174988-21.6594582-21.6594543-21.6594582H31.7725697z" fill="#9280b5"/></g><g id="change2_2"><path d="M5.0593214,310.2267151c-1.38504,0-2.7626734-0.5653687-3.7625685-1.6738892 c-1.8664708-2.0763245-1.6985872-5.2735291,0.3777382-7.1424561l170.8215942-153.6456146 c1.836853-1.6492157,4.5871735-1.7331543,6.5178375-0.2073975l152.4111633,120.4663849l80.9767151-67.5361328 c2.0516357-1.7109222,5.0759888-1.5307007,6.9128418,0.4098358l79.3027954,83.8356476 c1.9183044,2.026947,1.8294373,5.2290955-0.1999817,7.1473999c-2.0220032,1.915863-5.2266235,1.8319092-7.1473999-0.1999817 l-76.0389404-80.3841553l-80.4804382,67.1238098c-1.8442688,1.5307312-4.5007629,1.5603333-6.3746338,0.0839539 l-152.287735-120.3676147L8.4392138,308.9305725C7.4714141,309.7995911,6.264133,310.2267151,5.0593214,310.2267151z" fill="#9280b5"/></g><g id="change2_3"><path d="M333.3384705,209.4274139c-46.9012451,0-85.0602112-38.1589508-85.0602112-85.0602112 s38.1589661-85.0602112,85.0602112-85.0602112s85.0602112,38.1589622,85.0602112,85.0602112 S380.2397156,209.4274139,333.3384705,209.4274139z M333.3384705,49.4195061 c-41.3265381,0-74.9476929,33.6211662-74.9476929,74.9476929s33.6211548,74.9476929,74.9476929,74.9476929 s74.9476929-33.62117,74.9476929-74.9476929S374.6650085,49.4195061,333.3384705,49.4195061z" fill="#9280b5"/></g></g></svg>