<?xml version="1.0" encoding="UTF-8" standalone="no"?><svg xmlns="http://www.w3.org/2000/svg" xmlns:xlink="http://www.w3.org/1999/xlink" fill="#000000" height="500" preserveAspectRatio="xMidYMid meet" version="1" viewBox="0.0 0.0 432.0 500.0" width="432" zoomAndPan="magnify"><g id="Illustration"><g id="change1_1"><path d="M41.187 130.846H430.503V498.414H41.187z" fill="#755da3" transform="rotate(-.468 235.846 314.63)"/></g><g id="change2_1"><path d="M393.9939575,469.9151611H5.342185C2.3919842,469.9151611,0,467.5231628,0,464.5729675V75.92379 c0-2.9502029,2.3919842-5.342186,5.342185-5.342186h388.6517639c2.9502258,0,5.3421936,2.391983,5.3421936,5.342186v388.6491699 C399.3361511,467.5231628,396.9441833,469.9151611,393.9939575,469.9151611z M10.68437,459.2307739h377.9674377V81.2659683 H10.68437V459.2307739z" fill="#9280b5"/></g><g id="change1_2"><circle cx="213.579" cy="28.263" fill="#755da3" r="28.258"/></g><g id="change2_2"><path d="M199.6745911,104.9849625c-0.3390961,0-0.6808014-0.0313034-1.0277405-0.0991287 c-2.8954163-0.5634308-4.7865753-3.370163-4.2205353-6.2655869l11.511261-59.0718384 c0.5608215-2.8980293,3.3519135-4.7917938,6.2655945-4.2205315c2.8954163,0.5634308,4.7865753,3.3701668,4.2205353,6.2655869 l-11.511261,59.0718346C204.4168243,103.2164078,202.1787415,104.9849625,199.6745911,104.9849625z" fill="#9280b5"/></g></g></svg>